<?xml version="1.0" encoding="UTF-8"?>
<svg id="a" data-name="Layer_1" xmlns="http://www.w3.org/2000/svg" width="427.27" height="151.09" viewBox="0 0 427.27 151.09">
  <defs>
    <style>
      .b {
        fill: #fff;
      }

      .c {
        fill: #f05224;
      }
    </style>
  </defs>
  <rect class="c" width="427.27" height="151.09"/>
  <g>
    <path class="b" d="M83.64,87.31h12.08c-.46,7.31-2.85,12.98-7.19,17-4.34,4.03-10.58,6.04-18.73,6.04-9.91,0-17.3-3.59-22.17-10.77-4.06-6.01-6.09-14.29-6.09-24.85s1.9-18.84,5.7-24.66c4.68-7.18,12.2-10.77,22.56-10.77,7.86,0,13.98,1.95,18.35,5.85,4.37,3.9,6.89,9.31,7.58,16.23h-12.08c-.58-3.28-2.04-5.97-4.36-8.06-2.32-2.1-5.25-3.14-8.79-3.14h-1.32c-10.62,0-15.93,8.19-15.93,24.56s5.31,24.75,15.93,24.75h1.22c3.73,0,6.77-1.17,9.11-3.51,2.34-2.34,3.72-5.23,4.14-8.67Z"/>
    <path class="b" d="M148.15,109.48h-41.32V40.34h11.6v58.18h29.72v10.96Z"/>
    <path class="b" d="M182.4,110.35c-10.04,0-17.43-3.59-22.17-10.77-4.06-6.01-6.09-14.29-6.09-24.85s1.9-18.84,5.7-24.66c4.68-7.18,12.2-10.77,22.56-10.77s17.93,3.59,22.61,10.77c3.8,5.82,5.7,14.03,5.7,24.66s-2.03,18.84-6.09,24.85c-4.87,7.18-12.28,10.77-22.22,10.77ZM181.77,99.49h1.12c10.85,0,16.27-8.25,16.27-24.75s-5.39-24.41-16.18-24.41h-1.22c-10.72,0-16.08,8.14-16.08,24.41s5.36,24.75,16.08,24.75Z"/>
    <path class="b" d="M268.89,59.49h-11.45c0-2.79-1.28-5.17-3.85-7.14-2.57-1.97-5.55-2.95-8.97-2.95-3.9,0-7.03.82-9.4,2.46-2.37,1.64-3.56,3.74-3.56,6.31,0,.85.16,1.64.49,2.39.32.75.74,1.39,1.24,1.92.5.54,1.19,1.06,2.05,1.56.86.5,1.69.92,2.48,1.24.8.32,1.8.67,3.02,1.05,1.22.37,2.28.67,3.19.9.91.23,2.06.52,3.46.88,1.4.36,2.53.65,3.41.88,2.31.62,4.34,1.28,6.09,2,1.75.71,3.5,1.63,5.24,2.75,1.74,1.12,3.16,2.39,4.26,3.8,1.1,1.41,2,3.14,2.68,5.19.68,2.05,1.02,4.34,1.02,6.87,0,4.52-1.15,8.36-3.46,11.55-2.31,3.18-5.32,5.51-9.04,6.99-3.72,1.48-7.93,2.22-12.64,2.22-3.15,0-6.08-.25-8.79-.76-2.71-.5-5.21-1.32-7.48-2.44-2.27-1.12-4.21-2.51-5.8-4.17-1.59-1.66-2.83-3.69-3.73-6.09-.89-2.4-1.34-5.1-1.34-8.09h12.38c.39,3.44,1.98,6.16,4.77,8.16,2.79,2,6.12,3,9.99,3,2.08,0,4.12-.38,6.12-1.15,2-.76,3.7-1.93,5.12-3.51,1.41-1.58,2.12-3.34,2.12-5.29,0-2.79-.93-4.92-2.78-6.38-2.96-2.14-8.38-4.01-16.27-5.6-3.44-.71-6.51-1.75-9.21-3.12-6.63-3.22-9.94-8.71-9.94-16.47,0-4.03,1.06-7.51,3.19-10.45,2.13-2.94,4.97-5.12,8.53-6.55,3.56-1.43,7.59-2.14,12.11-2.14,7.76,0,13.83,1.79,18.2,5.36,4.37,3.57,6.55,8.51,6.55,14.81Z"/>
    <path class="b" d="M280.73,40.34h43.02v10.96h-31.43v18.17h29.53v10.77h-29.53v18.27h32.26v10.96h-43.85V40.34Z"/>
    <path class="b" d="M335.2,109.48V40.34h20.85c10.3,0,17.88,2.86,22.75,8.58s7.31,14.39,7.31,26.02-2.1,19.36-6.29,24.95c-4.81,6.4-12.52,9.6-23.14,9.6h-21.49ZM356.06,51.2h-9.26v47.41h9.89c3.44,0,6.33-.53,8.67-1.58,2.34-1.06,4.16-2.65,5.46-4.77,1.3-2.13,2.22-4.58,2.78-7.36.55-2.78.83-6.1.83-9.96,0-8.09-1.48-14.06-4.43-17.93-2.96-3.87-7.6-5.8-13.94-5.8Z"/>
  </g>
</svg>