<?xml version="1.0" encoding="UTF-8"?>
<svg id="a" data-name="Layer 1" xmlns="http://www.w3.org/2000/svg" width="1581.89" height="342.6" viewBox="0 0 1581.89 342.6">
  <defs>
    <style>
      .b {
        fill: #fff;
      }
    </style>
  </defs>
  <g>
    <path class="b" d="M54.52,258.51c0-.95.71-1.74,1.64-1.87,3.01-.42,4.92-1.03,5.72-1.84.94-.94,1.41-2.14,1.41-3.6v-115.29c0-1.04-.85-1.89-1.89-1.89H9.4c-1.67,0-2.93.58-3.76,1.72-.7.97-1.26,2.78-1.66,5.43-.14.92-.93,1.62-1.87,1.62h-.22C.85,142.79,0,141.95,0,140.9v-51.99c0-1.04.85-1.89,1.89-1.89h0c1.06,0,1.95.78,2.12,1.83.4,2.54.95,4.28,1.63,5.22.83,1.15,2.09,1.72,3.76,1.72h154.78c1.67,0,2.92-.57,3.76-1.72.7-.96,1.25-2.77,1.66-5.43.14-.92.93-1.62,1.87-1.62h.22c1.04,0,1.89.85,1.89,1.89v51.99c0,1.04-.85,1.89-1.89,1.89h-.22c-.93,0-1.72-.69-1.87-1.62-.41-2.66-.96-4.47-1.66-5.43-.84-1.15-2.09-1.72-3.76-1.72h-52c-1.04,0-1.89.85-1.89,1.89v115.29c0,1.46.47,2.66,1.41,3.6.8.8,2.71,1.42,5.72,1.84.94.13,1.64.93,1.64,1.87v.2c0,1.04-.85,1.89-1.89,1.89h-60.76c-1.04,0-1.89-.85-1.89-1.89v-.2Z"/>
    <path class="b" d="M367.01,155.12c-.62-.43-.9-1.19-.74-1.93.06-.27.11-.56.15-.85.1-.73.16-1.62.16-2.66,0-1.67-1.41-3.34-4.23-5.01-2.82-1.67-6.58-3.18-11.28-4.54-4.7-1.36-10.08-2.51-16.14-3.45-6.06-.94-12.43-1.41-19.11-1.41-6.27,0-12.85.73-19.74,2.19-6.89,1.46-13.21,3.87-18.96,7.21-5.75,3.34-10.45,7.78-14.1,13.32-3.66,5.54-5.48,12.27-5.48,20.21s1.83,14.68,5.48,20.21c3.65,5.54,8.35,9.98,14.1,13.32,5.74,3.34,12.06,5.75,18.96,7.21,6.89,1.46,13.47,2.19,19.74,2.19,2.71,0,7-.47,12.85-1.41,5.85-.94,11.7-2.24,17.55-3.92,5.85-1.67,11.02-3.55,15.51-5.64,4.49-2.09,6.74-4.28,6.74-6.58,0-1.04-.21-1.88-.63-2.51-.11-.17-.23-.35-.34-.53-.55-.89-.3-2.05.58-2.61l.38-.24c.87-.55,2.03-.31,2.59.56l30.16,45.97c.59.9.31,2.12-.63,2.67l-.39.23c-.78.45-1.81.36-2.4-.33-.29-.34-.61-.59-.98-.74-.73-.31-1.62-.47-2.66-.47-1.46,0-4.39.89-8.77,2.66-4.39,1.78-10.08,3.66-17.08,5.64-7,1.99-15.2,3.76-24.6,5.33-9.4,1.57-19.95,2.35-31.65,2.35-12.53,0-24.96-1.62-37.29-4.86-12.33-3.24-23.4-8.35-33.21-15.35-9.82-7-17.76-15.77-23.81-26.32-6.06-10.55-9.09-22.82-9.09-36.82s3.03-26.27,9.09-36.82c6.06-10.54,13.99-19.32,23.81-26.32,9.82-7,20.88-12.27,33.21-15.82,12.32-3.55,24.75-5.33,37.29-5.33s23.34.68,32.43,2.04c9.09,1.36,16.76,2.87,23.03,4.54,6.06,1.67,10.76,3.08,14.1,4.23,3.34,1.15,5.85,1.72,7.52,1.72,1.54,0,2.87-.56,3.99-1.68.48-.49,1.19-.69,1.85-.51h0c1.18.32,1.75,1.66,1.16,2.73l-26.04,47.74c-.54.99-1.82,1.29-2.74.64l-.35-.24Z"/>
  </g>
  <g>
    <path class="b" d="M1262,254.6c0-.95.71-1.74,1.64-1.87,3.01-.42,4.92-1.03,5.72-1.84.94-.94,1.41-2.14,1.41-3.6v-115.3l-.63-.63-54.03,117.78c-.68,1.48-2.78,1.47-3.44-.01l-53.44-119.02h-.63v117.18c0,1.46.47,2.66,1.41,3.6.8.8,2.71,1.42,5.72,1.84.94.13,1.64.93,1.64,1.87v.2c0,1.04-.85,1.89-1.89,1.89h-51.36c-1.04,0-1.89-.85-1.89-1.89v-.2c0-.95.71-1.74,1.64-1.87,3.01-.42,4.92-1.03,5.72-1.84.94-.94,1.41-2.14,1.41-3.6V101.28c0-1.46-.47-2.66-1.41-3.6-.8-.8-2.71-1.41-5.72-1.84-.94-.13-1.64-.93-1.64-1.87v-.2c0-1.04.85-1.89,1.89-1.89h78c1.04,0,1.89.85,1.89,1.89v.14c0,.96-.72,1.74-1.68,1.88-3.9.53-5.84,2.37-5.84,5.49,0,.21.63,1.88,1.88,5.01,1.25,3.13,2.87,7,4.86,11.59,1.98,4.6,4.18,9.56,6.58,14.88,2.4,5.33,4.7,10.45,6.89,15.35,2.19,4.91,4.12,9.24,5.8,13,.64,1.45,1.21,2.71,1.7,3.79.67,1.48,2.76,1.47,3.44-.01,3.02-6.63,6.11-13.11,9.28-19.44,3.76-7.52,7.15-14.41,10.18-20.68,3.03-6.27,5.48-11.48,7.36-15.67,1.88-4.18,2.82-6.78,2.82-7.83,0-3.13-1.95-4.96-5.84-5.49-.95-.13-1.68-.92-1.68-1.88v-.14c0-1.04.85-1.89,1.89-1.89h81.13c1.04,0,1.89.85,1.89,1.89v.2c0,.95-.71,1.74-1.64,1.87-3.01.42-4.92,1.03-5.72,1.84-.94.94-1.41,2.14-1.41,3.6v146.01c0,1.46.47,2.66,1.41,3.6.8.8,2.71,1.42,5.72,1.84.94.13,1.64.93,1.64,1.87v.2c0,1.04-.85,1.89-1.89,1.89h-58.89c-1.04,0-1.89-.85-1.89-1.89v-.2Z"/>
    <path class="b" d="M1519.23,254.6c0-.95.71-1.74,1.64-1.87,3.01-.42,4.92-1.03,5.72-1.84.94-.94,1.41-2.14,1.41-3.6v-115.3l-.63-.63-54.03,117.78c-.68,1.48-2.78,1.47-3.44-.01l-53.44-119.02h-.63v117.18c0,1.46.47,2.66,1.41,3.6.8.8,2.71,1.42,5.72,1.84.94.13,1.64.93,1.64,1.87v.2c0,1.04-.85,1.89-1.89,1.89h-51.36c-1.04,0-1.89-.85-1.89-1.89v-.2c0-.95.71-1.74,1.64-1.87,3.01-.42,4.92-1.03,5.72-1.84.94-.94,1.41-2.14,1.41-3.6V101.28c0-1.46-.47-2.66-1.41-3.6-.8-.8-2.71-1.41-5.72-1.84-.94-.13-1.64-.93-1.64-1.87v-.2c0-1.04.85-1.89,1.89-1.89h78c1.04,0,1.89.85,1.89,1.89v.14c0,.96-.72,1.74-1.68,1.88-3.9.53-5.84,2.37-5.84,5.49,0,.21.63,1.88,1.88,5.01,1.25,3.13,2.87,7,4.86,11.59,1.98,4.6,4.18,9.56,6.58,14.88,2.4,5.33,4.7,10.45,6.89,15.35,2.19,4.91,4.12,9.24,5.8,13,.64,1.45,1.21,2.71,1.7,3.79.67,1.48,2.76,1.47,3.44-.01,3.02-6.63,6.11-13.11,9.28-19.44,3.76-7.52,7.15-14.41,10.18-20.68,3.03-6.27,5.48-11.48,7.36-15.67,1.88-4.18,2.82-6.78,2.82-7.83,0-3.13-1.95-4.96-5.84-5.49-.95-.13-1.68-.92-1.68-1.88v-.14c0-1.04.85-1.89,1.89-1.89h81.13c1.04,0,1.89.85,1.89,1.89v.2c0,.95-.71,1.74-1.64,1.87-3.01.42-4.92,1.03-5.72,1.84-.94.94-1.41,2.14-1.41,3.6v146.01c0,1.46.47,2.66,1.41,3.6.8.8,2.71,1.42,5.72,1.84.94.13,1.64.93,1.64,1.87v.2c0,1.04-.85,1.89-1.89,1.89h-58.89c-1.04,0-1.89-.85-1.89-1.89v-.2Z"/>
  </g>
  <path class="b" d="M553.28,243.28c24.3,2.04,36.57,32,54.82,44.5,4.01,2.75,8.12,4.61,12.64,1.93h.01s.03-.02.03-.02h0s.05-.05.05-.05L910.46,0s.09.04.13.07c1.17.6,17.65,17.11,18.65,18.61.39.59,1.08.96.85,1.83l-312.17,312.17c-37,23.04-72.42,2.87-97.6-29.21-20.39-25.98.37-62.94,32.95-60.2Z"/>
  <g>
    <rect class="b" x="743.67" y="158.48" width="28.39" height="28.39" transform="translate(99.87 586.46) rotate(-45)"/>
    <path class="b" d="M725.77,160.65l20.07-20.07L605.26,0s-.09.04-.13.07c-1.17.6-17.65,17.11-18.65,18.61-.39.59-1.08.96-.85,1.83l140.14,140.14Z"/>
    <path class="b" d="M962.45,243.28c-24.3,2.04-36.57,32-54.82,44.5-4.01,2.75-8.12,4.61-12.64,1.93h-.01s-.03-.02-.03-.02h0s-.05-.05-.05-.05l-104.93-104.93-20.07,20.07,127.92,127.91c37,23.04,72.42,2.87,97.6-29.21,20.39-25.98-.37-62.94-32.95-60.2Z"/>
  </g>
</svg>