<?xml version="1.0" encoding="UTF-8"?>
<svg id="a" data-name="Layer_1" xmlns="http://www.w3.org/2000/svg" width="422.83" height="196.98" viewBox="0 0 422.83 196.98">
  <defs>
    <style>
      .b {
        fill: #fff;
      }

      .c {
        fill: #f05224;
      }
    </style>
  </defs>
  <rect class="c" width="422.83" height="196.98"/>
  <g>
    <path class="b" d="M80.84,87.31h12.08c-.46,7.31-2.85,12.98-7.19,17-4.34,4.03-10.58,6.04-18.73,6.04-9.91,0-17.3-3.59-22.17-10.77-4.06-6.01-6.09-14.29-6.09-24.85s1.9-18.84,5.7-24.66c4.68-7.18,12.2-10.77,22.56-10.77,7.86,0,13.98,1.95,18.35,5.85,4.37,3.9,6.89,9.31,7.58,16.23h-12.08c-.58-3.28-2.04-5.97-4.36-8.06-2.32-2.1-5.25-3.14-8.79-3.14h-1.32c-10.62,0-15.93,8.19-15.93,24.56s5.31,24.75,15.93,24.75h1.22c3.73,0,6.77-1.17,9.11-3.51,2.34-2.34,3.72-5.23,4.14-8.67Z"/>
    <path class="b" d="M145.35,109.48h-41.32V40.34h11.6v58.18h29.72v10.96Z"/>
    <path class="b" d="M179.6,110.35c-10.04,0-17.43-3.59-22.17-10.77-4.06-6.01-6.09-14.29-6.09-24.85s1.9-18.84,5.7-24.66c4.68-7.18,12.2-10.77,22.56-10.77s17.93,3.59,22.61,10.77c3.8,5.82,5.7,14.03,5.7,24.66s-2.03,18.84-6.09,24.85c-4.87,7.18-12.28,10.77-22.22,10.77ZM178.97,99.49h1.12c10.85,0,16.27-8.25,16.27-24.75s-5.39-24.41-16.18-24.41h-1.22c-10.72,0-16.08,8.14-16.08,24.41s5.36,24.75,16.08,24.75Z"/>
    <path class="b" d="M266.09,59.49h-11.45c0-2.79-1.28-5.17-3.85-7.14-2.57-1.97-5.55-2.95-8.97-2.95-3.9,0-7.03.82-9.4,2.46-2.37,1.64-3.56,3.74-3.56,6.31,0,.85.16,1.64.49,2.39.32.75.74,1.39,1.24,1.92.5.54,1.19,1.06,2.05,1.56.86.5,1.69.92,2.48,1.24.8.32,1.8.67,3.02,1.05,1.22.37,2.28.67,3.19.9.91.23,2.06.52,3.46.88,1.4.36,2.53.65,3.41.88,2.31.62,4.34,1.28,6.09,2,1.75.71,3.5,1.63,5.24,2.75,1.74,1.12,3.16,2.39,4.26,3.8,1.1,1.41,2,3.14,2.68,5.19.68,2.05,1.02,4.34,1.02,6.87,0,4.52-1.15,8.36-3.46,11.55-2.31,3.18-5.32,5.51-9.04,6.99-3.72,1.48-7.93,2.22-12.64,2.22-3.15,0-6.08-.25-8.79-.76-2.71-.5-5.21-1.32-7.48-2.44-2.27-1.12-4.21-2.51-5.8-4.17-1.59-1.66-2.83-3.69-3.73-6.09-.89-2.4-1.34-5.1-1.34-8.09h12.38c.39,3.44,1.98,6.16,4.77,8.16,2.79,2,6.12,3,9.99,3,2.08,0,4.12-.38,6.12-1.15,2-.76,3.7-1.93,5.12-3.51,1.41-1.58,2.12-3.34,2.12-5.29,0-2.79-.93-4.92-2.78-6.38-2.96-2.14-8.38-4.01-16.27-5.6-3.44-.71-6.51-1.75-9.21-3.12-6.63-3.22-9.94-8.71-9.94-16.47,0-4.03,1.06-7.51,3.19-10.45,2.13-2.94,4.97-5.12,8.53-6.55,3.56-1.43,7.59-2.14,12.11-2.14,7.76,0,13.83,1.79,18.2,5.36,4.37,3.57,6.55,8.51,6.55,14.81Z"/>
    <path class="b" d="M277.93,40.34h43.02v10.96h-31.43v18.17h29.53v10.77h-29.53v18.27h32.26v10.96h-43.85V40.34Z"/>
    <path class="b" d="M332.4,109.48V40.34h20.85c10.3,0,17.88,2.86,22.75,8.58s7.31,14.39,7.31,26.02-2.1,19.36-6.29,24.95c-4.81,6.4-12.52,9.6-23.14,9.6h-21.49ZM353.26,51.2h-9.26v47.41h9.89c3.44,0,6.33-.53,8.67-1.58,2.34-1.06,4.16-2.65,5.46-4.77,1.3-2.13,2.22-4.58,2.78-7.36.55-2.78.83-6.1.83-9.96,0-8.09-1.48-14.06-4.43-17.93-2.96-3.87-7.6-5.8-13.94-5.8Z"/>
  </g>
  <g>
    <path class="b" d="M43.26,124.65h19.7v5.21h-14.18v8.83h13.58v5.12h-13.58v13.72h-5.51v-32.88Z"/>
    <path class="b" d="M79.48,157.95c-4.77,0-8.29-1.71-10.54-5.12-1.93-2.86-2.9-6.8-2.9-11.82s.9-8.96,2.71-11.73c2.22-3.41,5.8-5.12,10.73-5.12s8.53,1.71,10.75,5.12c1.81,2.77,2.71,6.67,2.71,11.73s-.97,8.96-2.9,11.82c-2.32,3.41-5.84,5.12-10.57,5.12ZM79.18,152.78h.53c5.16,0,7.74-3.92,7.74-11.77s-2.56-11.61-7.69-11.61h-.58c-5.1,0-7.65,3.87-7.65,11.61s2.55,11.77,7.65,11.77Z"/>
    <path class="b" d="M123.18,157.53h-6.46l-8.34-13.09h-4.61v13.09h-5.51v-32.88h10.64c1.76,0,3.37.21,4.82.61,1.45.41,2.72,1.01,3.8,1.81,1.08.8,1.92,1.83,2.53,3.1.6,1.27.9,2.74.9,4.39,0,2.35-.57,4.29-1.7,5.82-1.14,1.53-2.75,2.6-4.83,3.2l8.78,13.95ZM109.93,129.86h-6.16v9.45h6.16c1.84,0,3.2-.37,4.09-1.12.89-.75,1.33-1.96,1.33-3.63,0-1.54-.5-2.71-1.49-3.51-1-.8-2.31-1.19-3.93-1.19Z"/>
    <path class="b" d="M137.87,129.86v-5.21h25.44v5.21h-9.96v27.67h-5.52v-27.67h-9.96Z"/>
    <path class="b" d="M173.16,138.06h13.23v-13.42h5.51v32.88h-5.51v-14.39h-13.23v14.39h-5.51v-32.88h5.51v13.42Z"/>
    <path class="b" d="M198.72,124.65h20.46v5.21h-14.95v8.64h14.04v5.12h-14.04v8.69h15.34v5.21h-20.85v-32.88Z"/>
    <path class="b" d="M255.42,133.75h-5.31c0-1.41-.33-2.56-1-3.45-.66-.9-1.63-1.34-2.9-1.34-1.36,0-2.36.37-2.99,1.12-.63.75-.95,1.76-.95,3.05,0,1.13.3,1.97.9,2.53.52.51,1.24.95,2.15,1.33.91.38,2.14.81,3.68,1.29,1.25.4,2.4.97,3.45,1.69,1.22.83,2.15,1.88,2.79,3.14.64,1.26.96,2.92.96,4.97,0,3.18-.9,5.62-2.7,7.32-1.8,1.7-4.17,2.55-7.12,2.55-3.18,0-5.7-.86-7.55-2.57-1.85-1.71-2.78-4.27-2.78-7.67h5.58c.34,3.54,1.92,5.31,4.75,5.31,1.22,0,2.25-.44,3.09-1.31.84-.87,1.26-2.01,1.26-3.42,0-.52-.07-1.01-.21-1.46-.14-.45-.31-.83-.51-1.16s-.49-.63-.86-.93c-.37-.29-.72-.53-1.04-.71-.32-.18-.76-.37-1.31-.57-.55-.2-1.02-.36-1.4-.46-.39-.11-.9-.25-1.53-.42-1.28-.36-2.39-.85-3.34-1.48-2.41-1.53-3.61-4.14-3.61-7.83,0-2.83.83-5.05,2.5-6.67,1.67-1.62,3.86-2.43,6.58-2.43,3.01,0,5.33.87,6.95,2.6s2.43,4.06,2.43,7Z"/>
    <path class="b" d="M261.19,124.65h16.8v5.21h-11.28v8.64h10.54v5.12h-10.54v8.69h11.59v5.21h-17.1v-32.88Z"/>
    <path class="b" d="M296.34,124.65l10.54,32.88h-5.84l-2.43-7.92h-10.24l-2.41,7.92h-5.75l10.43-32.88h5.7ZM289.94,144.39h7.11l-3.57-12.72-3.55,12.72Z"/>
    <path class="b" d="M327.6,133.75h-5.31c0-1.41-.33-2.56-1-3.45-.66-.9-1.63-1.34-2.9-1.34-1.36,0-2.36.37-2.99,1.12-.63.75-.95,1.76-.95,3.05,0,1.13.3,1.97.9,2.53.52.51,1.24.95,2.15,1.33.91.38,2.14.81,3.68,1.29,1.25.4,2.4.97,3.45,1.69,1.22.83,2.15,1.88,2.79,3.14.64,1.26.96,2.92.96,4.97,0,3.18-.9,5.62-2.7,7.32-1.8,1.7-4.17,2.55-7.12,2.55-3.18,0-5.7-.86-7.55-2.57-1.85-1.71-2.78-4.27-2.78-7.67h5.58c.34,3.54,1.92,5.31,4.75,5.31,1.22,0,2.25-.44,3.09-1.31.84-.87,1.26-2.01,1.26-3.42,0-.52-.07-1.01-.21-1.46-.14-.45-.31-.83-.51-1.16s-.49-.63-.86-.93c-.37-.29-.72-.53-1.04-.71-.32-.18-.76-.37-1.31-.57-.55-.2-1.02-.36-1.4-.46-.39-.11-.9-.25-1.53-.42-1.28-.36-2.39-.85-3.34-1.48-2.41-1.53-3.61-4.14-3.61-7.83,0-2.83.83-5.05,2.5-6.67,1.67-1.62,3.86-2.43,6.58-2.43,3.01,0,5.33.87,6.95,2.6s2.43,4.06,2.43,7Z"/>
    <path class="b" d="M343.05,157.95c-3.52,0-6.27-1.42-8.24-4.27-1.97-2.85-2.95-7.09-2.95-12.71s.97-9.91,2.9-12.66c1.93-2.76,4.7-4.14,8.3-4.14s6.37,1.38,8.31,4.14c1.94,2.76,2.91,6.98,2.91,12.66s-.98,9.86-2.95,12.71c-1.97,2.85-4.72,4.27-8.26,4.27ZM342.96,152.78c2.12,0,3.61-.95,4.48-2.84.87-1.89,1.31-4.87,1.31-8.93s-.44-6.97-1.33-8.83c-.89-1.85-2.38-2.78-4.46-2.78s-3.44.93-4.31,2.79c-.87,1.86-1.3,4.8-1.3,8.82s.42,7.04,1.27,8.93c.85,1.89,2.29,2.84,4.33,2.84Z"/>
    <path class="b" d="M375.31,124.65h5.52v32.88h-5.7l-10.06-21.97v21.97h-5.51v-32.88h5.84l9.92,21.92v-21.92Z"/>
  </g>
</svg>