<?xml version="1.0" encoding="UTF-8"?>
<svg id="a" data-name="Layer_1" xmlns="http://www.w3.org/2000/svg" width="426.47" height="188.5" viewBox="0 0 426.47 188.5">
  <defs>
    <style>
      .b {
        fill: #fff;
      }

      .c {
        fill: #f05224;
      }

      .d {
        fill: #ecb9b0;
      }
    </style>
  </defs>
  <rect class="c" width="427.27" height="188.73"/>
  <g>
    <path class="b" d="M83.63,87.31h12.08c-.46,7.31-2.85,12.98-7.19,17-4.34,4.03-10.58,6.04-18.73,6.04-9.91,0-17.3-3.59-22.17-10.77-4.06-6.01-6.09-14.29-6.09-24.85s1.9-18.84,5.7-24.66c4.68-7.18,12.2-10.77,22.56-10.77,7.86,0,13.98,1.95,18.35,5.85,4.37,3.9,6.89,9.31,7.58,16.23h-12.08c-.58-3.28-2.04-5.97-4.36-8.06-2.32-2.1-5.25-3.14-8.79-3.14h-1.32c-10.62,0-15.93,8.19-15.93,24.56s5.31,24.75,15.93,24.75h1.22c3.73,0,6.77-1.17,9.11-3.51,2.34-2.34,3.72-5.23,4.14-8.67Z"/>
    <path class="b" d="M148.15,109.48h-41.32V40.34h11.6v58.18h29.72v10.96Z"/>
    <path class="b" d="M182.4,110.35c-10.04,0-17.43-3.59-22.17-10.77-4.06-6.01-6.09-14.29-6.09-24.85s1.9-18.84,5.7-24.66c4.68-7.18,12.2-10.77,22.56-10.77s17.93,3.59,22.61,10.77c3.8,5.82,5.7,14.03,5.7,24.66s-2.03,18.84-6.09,24.85c-4.87,7.18-12.28,10.77-22.22,10.77ZM181.77,99.49h1.12c10.85,0,16.27-8.25,16.27-24.75s-5.39-24.41-16.18-24.41h-1.22c-10.72,0-16.08,8.14-16.08,24.41s5.36,24.75,16.08,24.75Z"/>
    <path class="b" d="M268.89,59.49h-11.45c0-2.79-1.28-5.17-3.85-7.14-2.57-1.97-5.55-2.95-8.97-2.95-3.9,0-7.03.82-9.4,2.46-2.37,1.64-3.56,3.74-3.56,6.31,0,.85.16,1.64.49,2.39.32.75.74,1.39,1.24,1.92.5.54,1.19,1.06,2.05,1.56.86.5,1.69.92,2.48,1.24.8.32,1.8.67,3.02,1.05,1.22.37,2.28.67,3.19.9.91.23,2.06.52,3.46.88,1.4.36,2.53.65,3.41.88,2.31.62,4.34,1.28,6.09,2,1.75.71,3.5,1.63,5.24,2.75,1.74,1.12,3.16,2.39,4.26,3.8,1.1,1.41,2,3.14,2.68,5.19.68,2.05,1.02,4.34,1.02,6.87,0,4.52-1.15,8.36-3.46,11.55-2.31,3.18-5.32,5.51-9.04,6.99-3.72,1.48-7.93,2.22-12.64,2.22-3.15,0-6.08-.25-8.79-.76-2.71-.5-5.21-1.32-7.48-2.44-2.27-1.12-4.21-2.51-5.8-4.17-1.59-1.66-2.83-3.69-3.73-6.09-.89-2.4-1.34-5.1-1.34-8.09h12.38c.39,3.44,1.98,6.16,4.77,8.16,2.79,2,6.12,3,9.99,3,2.08,0,4.12-.38,6.12-1.15,2-.76,3.7-1.93,5.12-3.51,1.41-1.58,2.12-3.34,2.12-5.29,0-2.79-.93-4.92-2.78-6.38-2.96-2.14-8.38-4.01-16.27-5.6-3.44-.71-6.51-1.75-9.21-3.12-6.63-3.22-9.94-8.71-9.94-16.47,0-4.03,1.06-7.51,3.19-10.45,2.13-2.94,4.97-5.12,8.53-6.55,3.56-1.43,7.59-2.14,12.11-2.14,7.76,0,13.83,1.79,18.2,5.36,4.37,3.57,6.55,8.51,6.55,14.81Z"/>
    <path class="b" d="M280.73,40.34h43.02v10.96h-31.43v18.17h29.53v10.77h-29.53v18.27h32.26v10.96h-43.85V40.34Z"/>
    <path class="b" d="M335.2,109.48V40.34h20.85c10.3,0,17.88,2.86,22.75,8.58s7.31,14.39,7.31,26.02-2.1,19.36-6.29,24.95c-4.81,6.4-12.52,9.6-23.14,9.6h-21.49ZM356.06,51.2h-9.26v47.41h9.89c3.44,0,6.33-.53,8.67-1.58,2.34-1.06,4.16-2.65,5.46-4.77,1.3-2.13,2.22-4.58,2.78-7.36.55-2.78.83-6.1.83-9.96,0-8.09-1.48-14.06-4.43-17.93-2.96-3.87-7.6-5.8-13.94-5.8Z"/>
  </g>
  <g>
    <path class="d" d="M43.52,141.97c2.88-7.84,9.49-26.54,13.45-38.04h4.1c-3.16,8.63-6.33,17.26-9.28,25.89,4.46,1.58,11.87,1.15,16.4-3.02l-.65,4.03c-4.31,3.24-11.36,3.74-15.1,2.37,5.83,10.07,3.74,35.45-8.77,35.45-7.62,0-6.62-9.06-.14-26.68ZM49.77,134.78c-6.4,17.76-10.57,30.28-5.68,30.28,7.62,0,9.85-21.5,5.68-30.28Z"/>
    <path class="d" d="M119.1,139.74c-2.3,3.74-6.69,9.49-12.15,9.49-3.74,0-5.75-2.8-5.75-6.33,0-5.03,3.24-11.65,5.68-17.33-1.8.07-5.61-.29-8.27-1.01-3.24,8.05-8.49,14.02-14.38,16.04-2.52,4.89-6.69,8.63-12.01,8.63s-8.99-4.31-8.99-10.07c0-10,6.47-18.99,14.6-18.99,6.11,0,8.92,5.39,8.92,10.07,0,1.8-.22,3.74-.72,5.54,4.82-2.59,8.49-8.63,10.57-16.97h3.88c-.22.86-.43,1.65-.72,2.44,3.52.86,9.78,1.15,12.73,1.01-2.66,6.04-7.34,15.39-7.34,19.85,0,2.16.58,3.38,2.23,3.38,2.73,0,6.9-4.17,9.13-8.05l2.59,2.3ZM82.78,130.39c0-3.45-1.8-6.54-5.47-6.54-5.54,0-10.14,7.77-10.14,15.1,0,4.31,2.3,6.54,5.47,6.54,5.47,0,10.14-8.13,10.14-15.1Z"/>
    <path class="d" d="M152.04,132.48v4.31c-2.8,6.11-8.27,12.44-13.38,12.44-9.49,0-6.69-12.23-2.3-24.81h-4.31l1.22-3.52h4.31c1.37-3.81,2.8-7.55,3.96-10.86h4.03c-1.51,3.88-2.88,7.55-4.03,10.86h6.76l-1.22,3.52h-6.83c-4.53,13.3-5.83,21.07-1.22,21.07,3.45,0,8.77-5.68,13.02-13.02Z"/>
    <path class="d" d="M163.84,143.41c0-5.68,5.82-12.01,5.82-16.54,0-1.94-.72-2.95-2.73-2.95-7.91,0-14.46,12.66-17.4,24.59h-3.96c2.88-9.21,11.58-35.38,14.81-44.59h4.03c-2.95,7.91-5.68,15.82-8.49,23.73,3.38-4.82,7.48-7.48,11.87-7.48,3.74,0,6.04,2.37,6.04,6.04,0,4.67-5.97,12.23-5.97,16.76,0,1.65.79,2.52,2.23,2.52,3.6,0,8.56-6.11,12.8-13.02v4.31c-2.8,6.11-8.41,12.44-13.38,12.44-3.45,0-5.68-2.16-5.68-5.83Z"/>
    <path class="d" d="M205.11,141.32c-2.23,3.74-7.48,7.91-14.1,7.91-7.48-.07-11.58-4.89-11.58-10.79,0-9.71,6.11-18.19,14.02-18.19,5.32,0,7.62,4.03,7.62,7.41,0,7.41-8.27,12.87-17.62,11,.29,3.88,2.73,6.9,8.41,6.9,4.1,0,8.77-3.74,10.64-6.83l2.59,2.59ZM183.68,135.21c6.4,1.73,13.38-2.09,13.38-7.26,0-2.01-1.29-4.03-3.74-4.03-4.89,0-8.7,5.32-9.64,11.29Z"/>
    <path class="d" d="M246.47,130.75l-.36,5.9c-4.53,10.57-11.94,12.58-20.14,12.58-5.68,0-10.28-2.73-11.51-6.4-.36-.94-.22-1.65.14-2.23,5.25-7.48,8.41-14.1,11.22-21.79h3.09c1.58,2.95,7.05,12.37,6.9,19.2-.07,2.95-1.29,5.83-3.02,7.19,4.96-.79,10.64-6.9,13.66-14.45ZM227.55,123.99c-2.3,6.26-6.9,14.31-9.71,18.05,1.51,2.3,4.17,3.74,6.62,3.74,4.6,0,7.33-3.31,7.41-7.69.07-5.03-2.37-10.28-4.31-14.1Z"/>
    <path class="d" d="M272.21,132.33v4.46c-2.8,6.76-8.85,12.44-17.98,12.44-7.48-.07-11.58-4.89-11.58-10.79,0-9.71,6.11-18.19,14.02-18.19,5.32,0,7.62,4.03,7.62,7.41,0,8.05-8.2,13.09-17.62,11.08.36,3.88,2.73,6.83,8.41,6.83,7.33,0,13.09-5.97,17.12-13.23ZM246.9,135.28c6.4,1.87,13.38-1.51,13.38-7.33,0-2.01-1.29-4.03-3.74-4.03-4.89,0-8.77,5.39-9.64,11.36Z"/>
    <path class="d" d="M303.79,132.48v4.31c-2.8,6.11-8.27,12.44-13.38,12.44-4.1,0-4.82-3.09-4.96-4.75-1.15,1.65-3.31,4.75-8.41,4.75s-8.34-4.75-8.34-10.28c0-9.78,6.04-18.77,14.6-18.77,3.24,0,6.26,2.16,7.19,4.17l1.22-3.45h3.88c-7.12,20.06-8.13,24.59-4.82,24.59s8.77-5.68,13.02-13.02ZM289.04,128.16c-.5-2.3-3.02-4.24-5.83-4.24-6.47,0-10.57,7.41-10.57,15.03,0,3.16,1.73,6.4,5.25,6.4,4.96,0,8.13-6.26,11.15-17.19Z"/>
    <path class="d" d="M330.18,130.75l-.36,5.9c-4.53,10.57-11.94,12.58-20.14,12.58-5.68,0-10.28-2.73-11.51-6.4-.36-.94-.22-1.65.14-2.23,5.25-7.48,8.41-14.1,11.22-21.79h3.09c1.58,2.95,7.05,12.37,6.9,19.2-.07,2.95-1.29,5.83-3.02,7.19,4.96-.79,10.64-6.9,13.66-14.45ZM311.27,123.99c-2.3,6.26-6.9,14.31-9.71,18.05,1.51,2.3,4.17,3.74,6.62,3.74,4.6,0,7.33-3.31,7.41-7.69.07-5.03-2.37-10.28-4.31-14.1Z"/>
    <path class="d" d="M360.89,128.66l-.72,4.67c-2.88,1.8-7.19,2.44-10.86,1.01-1.44,7.55-6.69,14.89-14.1,14.89-5.39,0-8.99-4.31-8.99-10.07,0-10,6.47-18.99,14.6-18.99,6.11,0,8.92,5.39,8.92,10.07v.43c3.09,1.58,8.34,1.15,11.15-2.01ZM345.79,130.39c0-3.45-1.8-6.54-5.47-6.54-5.54,0-10.14,7.77-10.14,15.1,0,4.31,2.3,6.54,5.47,6.54,5.47,0,10.14-8.13,10.14-15.1Z"/>
    <path class="d" d="M389.01,139.74c-2.3,3.74-6.69,9.49-12.15,9.49-3.45,0-5.68-2.16-5.68-5.83,0-5.68,5.83-12.01,5.83-16.54,0-1.94-.72-2.95-2.73-2.95-7.91,0-14.46,12.66-17.4,24.59h-3.96c2.88-9.21,5.83-18.41,9.06-27.62h3.67l-2.37,6.76c3.38-4.82,7.48-7.48,11.87-7.48,3.74,0,6.04,2.37,6.04,6.04,0,4.67-5.97,12.23-5.97,16.76,0,1.65.72,2.52,2.09,2.52,2.73,0,6.9-4.17,9.13-8.05l2.59,2.3Z"/>
  </g>
</svg>