<?xml version="1.0" encoding="UTF-8"?>
<svg id="Layer_1" data-name="Layer 1" xmlns="http://www.w3.org/2000/svg" viewBox="0 0 607.29 580.34">
  <path d="M406.65.19c83.54-5.06,157.67,90.42,182.07,161.67,36.73,107.26,29.19,296.04-117.35,305.89-130.21-22-262.95-32.24-393.02-54.61-67.12-11.55-101.62-75.63-60.77-133.27L313.96,55.36C338.51,27.06,367.32,2.58,406.65.19ZM413.44,44.94c-36.42,1.21-68.67,29.6-84.08,61.09-43.68,89.27-7.41,237.69,73.87,295.58,32.2,22.94,73,30.55,108.56,10.29,125.37-71.43,49.82-371.88-98.35-366.96Z"/>
  <path d="M135.63,441.99c.45,46.92,43.46,77.17,87.97,74.8,6.64,14.26,7.37,32.5-5.32,43.81-7.14,6.37-51.95,19.71-61.64,19.73-17.17.05-27.08-12.86-32.24-27.43-13.32-37.62-21.13-78.68-34.91-116.32l46.13,5.41Z"/>
  <path d="M157.33,446.07l61,8.84c2.64,9.27,12.64,17.61,12.36,27.11-.65,22.18-35.52,10.47-47.14,3.61-14.53-8.58-24.3-22.57-26.22-39.56Z"/>
  <path d="M340.71,165.53c36.96-6.72,78.19,14.86,93.15,49.45,20.8,48.08-6.05,103.14-49.34,127.74-3.79-.3-22.79-37.77-25.31-43.59-17.97-41.46-24.89-88.83-18.5-133.59Z"/>
</svg>