<?xml version="1.0" encoding="UTF-8"?>
<svg id="a" xmlns="http://www.w3.org/2000/svg" version="1.1" viewBox="0 0 386.2 389.7">
  <!-- Generator: Adobe Illustrator 29.8.1, SVG Export Plug-In . SVG Version: 2.1.1 Build 2)  -->
  <defs>
    <style>
      .st0 {
        fill: #c29742;
      }
    </style>
  </defs>
  <path class="st0" d="M216.6,0c7.6,2.5,10.4,7.6,10.1,15.5-.5,10.1,0,20.2-.1,30.4,0,7.4-4.6,12.6-11.1,12.7-6.4,0-11.4-5.2-11.5-12.4-.1-11.1,0-22.2,0-33.4C203.8,6,207.8,2.3,213.6,0h3,0Z"/>
  <path class="st0" d="M215.6,306.9c1.7,4.4,3.5,8.4,4.9,12.7,5.1,16.1-.4,33.5-15.2,41.4-18.7,9.9-38.1,18.8-57.7,26.6-15.2,6-31.8-.8-40.8-14.6-3.2-4.9-5.8-10.1-8.9-15.7-2.7,1.1-5.5,2.3-8.3,3.4-14.5,5.7-28.8,12-43.6,16.9-27.4,9.1-53.1-17.2-44.2-43.7,6.9-20.5,14.8-40.8,22.8-61,23.7-59.6,47.6-119.1,71.6-178.6,6.5-16.1,19.1-24.8,36.3-26.3,22.1-1.9,42,5.3,60.7,15.8,46.9,26.4,83,63.2,105.6,112.5,6.8,14.9,10.8,30.6,8.8,47.4-2.1,17.4-11.8,28.8-27.5,35.5-20.2,8.7-40.5,17.4-60.8,26-1.2.5-2.3,1.1-3.6,1.7h0ZM99.7,147.3c-.4.8-.7,1.3-.9,1.8-24,60.2-48.1,120.4-72.1,180.6-1.7,4.3-3,8.9-3.5,13.4-1,8.2,5.7,14.7,13.8,13.1,6-1.2,11.9-3.1,17.5-5.5,46.9-19.8,93.7-39.8,140.5-59.8,11.6-5,23.3-10,35.2-15.1-59.9-26.5-103-69.2-130.5-128.5h0ZM257.6,258.5c20.6.1,28.9-7.4,27.5-24-.8-10-3.4-20.5-7.5-29.6-19.4-43-51.1-75.1-91.4-99.1-13.5-8-27.8-14-43.7-15.4-18.6-1.7-29.1,8.8-26.3,27.2,1.2,8,3,16.1,6.2,23.4,21.1,47.5,55.8,82.3,101.3,106.6,11.8,6.3,24.3,10.6,33.9,10.9h0ZM194.6,315.6c-25.7,11-50.6,21.7-75.7,32.4,1.1,2.3,2,4.1,2.9,5.8,1.2,2.2,2.3,4.4,3.7,6.5,3.6,5.5,9.5,8.2,15.5,5.6,17.6-7.7,35.1-15.8,52.4-24.1,5.2-2.5,7.5-8.8,5.9-14.1-1.1-3.9-2.9-7.7-4.7-12.1h0Z"/>
  <path class="st0" d="M340.1,59.1c-1.4,2.5-2.3,5.5-4.2,7.5-8,8.4-16.3,16.6-24.6,24.7-4.8,4.7-11.6,4.7-16.1.3-4.5-4.4-4.7-11.2,0-16,8.2-8.5,16.6-16.8,25-25,3.6-3.6,8.1-4.5,12.8-2.3,4.3,2,6.5,5.5,7.1,10.8h0Z"/>
  <path class="st0" d="M357.2,182.7c-5.8,0-11.6.1-17.4,0-6.7-.2-11.2-4.5-11.5-10.6-.3-6.4,4.1-11.5,10.9-11.7,12.1-.3,24.2-.3,36.3,0,6.6.2,10.8,5,10.7,11.3,0,6.2-4.4,10.7-11.1,10.9-6,.2-11.9,0-17.9,0h0s0,0,0,0Z"/>
</svg>