<?xml version="1.0" encoding="UTF-8"?>
<svg id="Layer_1" xmlns="http://www.w3.org/2000/svg" version="1.1" viewBox="0 0 32 32">
  <!-- Generator: Adobe Illustrator 29.8.1, SVG Export Plug-In . SVG Version: 2.1.1 Build 2)  -->
  <defs>
    <style>
      .st0 {
        fill: #c29742;
      }
    </style>
  </defs>
  <path class="st0" d="M16,3c-7.2,0-13,5.8-13,13s5.8,13,13,13,13-5.8,13-13c0-7.2-5.8-13-13-13ZM16,27c-6.1,0-11-4.9-11-11s4.9-11,11-11,11,4.9,11,11c0,6.1-4.9,11-11,11ZM24,16c0,.6-.4,1-1,1h-7c-.6,0-1-.4-1-1v-7c0-.6.4-1,1-1s1,.4,1,1v6h6c.6,0,1,.4,1,1Z"/>
</svg>