<?xml version="1.0" encoding="UTF-8"?>
<svg id="Layer_1" data-name="Layer 1" xmlns="http://www.w3.org/2000/svg" viewBox="0 0 477.38 477.42">
  <defs>
    <style>
      .cls-1 {
        fill: #c29742;
      }
    </style>
  </defs>
  <path class="cls-1" d="M385.37,78.23h-26.37C352.27,33.39,313.78,0,268.02,0H92.01C41.27,0,0,41.27,0,92.01v270.95c0,13.4,7.34,25.64,19.14,31.94,5.23,2.81,11.14,4.29,17.09,4.29,7.17,0,14.12-2.11,20.09-6.09l64.11-42.73c10.62,39.92,47.11,68.32,88.92,68.32h132.74l78.95,52.64c5.95,3.99,12.9,6.1,20.1,6.1,5.95,0,11.86-1.48,17.08-4.29,11.81-6.31,19.15-18.55,19.15-31.94V170.24c0-50.73-41.28-92.01-92.01-92.01ZM268.02,312.92h-135.67c-4.35,0-7.74,1.68-8.68,2.2l-.15.08-82.5,54.97-.47.31c-2.65,1.55-5.69,1.61-8.44.13-2.86-1.52-4.57-4.38-4.57-7.64V92.01c0-35.54,28.91-64.45,64.45-64.45h176.02c35.54,0,64.45,28.91,64.45,64.45v156.46c0,35.54-28.91,64.45-64.45,64.45ZM268.04,340.48c50.73,0,92.01-41.27,92.01-92.01V105.79h25.34c35.54,0,64.45,28.91,64.45,64.45l-.02,270.97c0,3.26-1.71,6.11-4.58,7.64-2.85,1.53-6.18,1.37-8.89-.43l-82.43-54.95c-2.26-1.52-4.91-2.32-7.64-2.32h-136.9c-30.29,0-56.57-21.48-62.96-50.67h121.63Z"/>
  <path class="cls-1" d="M258.7,104.72H91.65c-7.73,0-14-6.27-14-14s6.27-14,14-14h167.06c7.73,0,14,6.27,14,14s-6.27,14-14,14Z"/>
  <path class="cls-1" d="M190.49,154.72h-98.84c-7.73,0-14-6.27-14-14s6.27-14,14-14h98.84c7.73,0,14,6.27,14,14s-6.27,14-14,14Z"/>
</svg>