<?xml version="1.0" encoding="UTF-8"?>
<svg id="a" xmlns="http://www.w3.org/2000/svg" version="1.1" viewBox="0 0 511 511">
  <!-- Generator: Adobe Illustrator 29.8.1, SVG Export Plug-In . SVG Version: 2.1.1 Build 2)  -->
  <defs>
    <style>
      .st0 {
        fill: #c29742;
      }
    </style>
  </defs>
  <path class="st0" d="M353.3,0h9c3.5,2.7,7.3,5.1,10.4,8.2,9.4,9.1,18.5,18.5,27.9,28,9.4-9.4,18.4-18.6,27.7-27.6C431.6,5.3,435.5,2.8,439.1,0h8c13.5,8,14.7,17.5,3.5,28.7-9.5,9.5-19,19-28.8,28.7,9.7,9.7,19,19.2,28.7,28.3,6.1,5.8,9.1,12.1,6.6,20.4-2.1,7,.3,12.4,4.7,18.1,15.3,19.7,30.2,39.7,44.9,59.8,2.3,3.1,4.1,7.5,4.1,11.3.2,87.3.2,174.6.1,261.9,0,28.8-24.4,53.5-52.9,53.6-74.5.2-149,.2-223.5,0-28.1,0-52.6-24.7-52.7-52.7,0-5.7-1.2-9.7-6.3-12.6-2.8-1.6-5-4.4-7.3-6.7-47.2-47.1-94.2-94.4-141.6-141.4C14.4,285.5,3.1,273.2,0,255.5v-16c.3-.9.8-1.8,1-2.7,2.2-10.5,6.9-19.7,14.5-27.3,61.1-61.2,122.2-122.3,183.5-183.4,2.6-2.6,6.8-4.3,10.5-5,10.6-2,21.3-3.2,32-4.8,26.8-3.8,53.6-7.6,80.4-11.4,10.5-1.5,20.9-3.3,31.4-5ZM379.1,56.9c-8.1-8.1-16.5-16.5-24.9-24.7-.8-.7-2.4-1-3.5-.9-11.7,1.5-23.4,3.2-35,4.9-31.5,4.5-63.1,9-94.6,13.7-2.1.3-4.5,1.4-6,2.8-59.1,59-118.2,118-177.1,177-10.7,10.7-10.7,25.4-.1,36,51.5,51.5,102.9,103,154.5,154.5,10.4,10.4,25.3,10.5,35.7.1,59.2-59.1,118.3-118.3,177.4-177.5,1.3-1.3,2.5-3.3,2.8-5.1,6.2-43.4,12.4-86.8,18.5-130.1.2-1.3,0-3.2-.8-4-8.2-8.4-16.5-16.7-23.9-24.2-7.2,7.2-14.1,14-21.4,21.3,2.8,2.7,6.2,5.6,9.3,8.8,6.2,6.3,6.4,15.5.7,21.5-5.9,6.1-15.3,6.2-21.8-.2-14-13.8-27.9-27.6-41.6-41.6-6.2-6.3-6.2-15.6-.3-21.5,6-6,15.3-5.9,21.8.5,3.3,3.2,6.3,6.7,9.3,9.9,7.6-7.6,14.4-14.4,21.5-21.5h0ZM450.2,159.2c-.5,1.4-.9,2.1-1,2.9-3.8,26.6-7.5,53.3-11.3,79.9-1,6.9-2.1,13.4-7.6,18.9-59.9,59.6-119.6,119.4-179.3,179.1-2.1,2.1-4.3,4.1-6.6,6-9.4,7.8-20.5,11.2-32.5,12.3,1.9,14.1,11.7,22.8,25.9,22.8,72.2,0,144.4,0,216.5,0,16,0,26.6-10.6,26.6-26.6,0-83.7,0-167.3,0-251,0-2.3-.9-4.9-2.3-6.8-8.3-11.4-16.9-22.7-25.4-33.9-.9-1.1-1.8-2.2-3.1-3.6h0Z"/>
  <path class="st0" d="M274.7,128.4c-.6,2.2-1,4.6-1.8,6.9-22.8,68.6-45.7,137.1-68.4,205.7-2.1,6.3-5.1,11.7-12.1,13.2-12.1,2.6-21.3-8.2-17.3-20.4,6.8-20.8,13.8-41.5,20.7-62.3,16.3-48.9,32.6-97.8,48.9-146.7,2.6-7.7,7.8-11.9,14.7-12,6.5,0,12.2,3.9,14.3,10.3.5,1.6.7,3.2,1,5.2h0Z"/>
  <path class="st0" d="M309,278.6c-24.9,0-45.2-20.2-45.1-44.9,0-24.5,20.3-44.8,44.8-44.9,24.7-.1,45.2,20.1,45.4,44.8.2,24.7-20.1,45-45,45.1h0ZM294.2,233.8c0,8.3,6.6,14.9,14.9,14.8,8.2,0,14.7-6.8,14.5-15.1-.1-8.1-6.6-14.6-14.6-14.6-8.2,0-14.8,6.7-14.8,15Z"/>
  <path class="st0" d="M139.7,278.6c-25,0-45-19.9-45-44.9,0-24.7,20-44.8,44.5-45,24.8-.1,45.3,20.1,45.3,44.8,0,24.9-20,45-44.9,45.1h0ZM139.4,248.6c8.1.1,15-6.6,15.1-14.6.1-7.9-6.8-15-14.8-15.1-7.9-.1-14.9,6.7-15,14.7,0,8.1,6.5,14.9,14.7,15h0Z"/>
</svg>