<?xml version="1.0" encoding="UTF-8"?>
<svg id="Layer_1" xmlns="http://www.w3.org/2000/svg" version="1.1" viewBox="0 0 409.6 409.6">
  <!-- Generator: Adobe Illustrator 29.8.1, SVG Export Plug-In . SVG Version: 2.1.1 Build 2)  -->
  <defs>
    <style>
      .st0 {
        fill: #c29742;
      }
    </style>
  </defs>
  <path class="st0" d="M9.6,409.6c-5-2.8-8.1-5.5-8.8-11.6.4-49-.7-98.2.5-147.2,1.7-5.8,6-8.4,11.8-9,12.9-1.2,39.8-1.2,52.6.1,9.8,1,20.2,6.9,25.7,15.1,25.7-21.1,60.5-26.1,90.9-11.9,13.6,6.4,22.8,19.4,38.4,20.7,19,1.5,40.1-1.5,59.1,0,14.5,1.1,27.6,10.8,31.9,24.8,1.3,0,4.2-3.3,5.2-4.4,10.6-11.2,30.3-36.9,43.7-41.8,18.3-6.6,37.5,1.1,45.6,18.7l3.3,11.5v8c-1.5,6.5-3.8,11.5-7.3,17-18.3,28.6-44,56.1-63.7,84-10.3,10.2-22.8,18.2-36.8,22.3-5.5,1.6-11.2,2.3-16.8,3.6h-126.1l-25.9-2.5-43.2-9.5c-6.8,6-13.8,10.1-22.8,12H9.6ZM286.4,293.3c-1.7-1.7-5.6-3.2-8.1-3.5-25.6-2.8-58,5.8-81.6-6.2-8.6-4.4-15.2-12.2-24.2-16.5-26.5-12.9-54.7-4.2-74.3,16.2v92c59.7,17.2,122.7,8.2,184.1,10.5,17-1.9,31.1-9.6,42.3-22.4,20.8-23.8,38-53.7,58.5-78,8.2-12.2-6.1-25.6-17.8-16.2l-55.1,59.1c-6.4,5.7-14.6,9-23.1,9.6-30.6,2.3-64.1-1.8-95.1,0-14.6-1.6-15.1-21.4-.7-23.9l89.2-.2c9-2.3,12.7-13.5,5.9-20.3h0ZM24.8,385.6h40.3c.3,0,5.4-3,6-3.6,1.7-1.8,3-5.5,3.2-8,3-30.7-2.4-66.3,0-97.5.5-3.7-6.3-10.8-9.2-10.8H24.8v119.8h0Z"/>
  <path class="st0" d="M210,35.9c11.8-15.4,24.9-28.9,44.5-33.3,62.5-14.1,103.5,52.5,80.1,107.3-15.7,36.8-67.4,77-98.3,102.9-4.4,3.7-16.6,15.1-20.8,16.7-5.3,2.1-8.6,1.1-13.2-2-47.2-46-146-99.1-117.6-179,20.1-56.7,95.3-65.1,125.2-12.6h0ZM145.9,25c-28.2,3-44.5,30.9-42.1,57.6,2.7,29.5,31.8,55.6,52.6,74.4,17.6,15.9,36.4,30.7,54.6,45.8,21.2-19.2,44.4-36.5,65.2-56.2,16.6-15.8,37.3-37.2,40.6-60.8,8-56.8-59.1-86.7-88.6-32.7-3.5,6.4-6.6,21-14.1,22.6-14.9,3.1-15.8-12.6-21.1-22.4-9.8-18-25.6-30.6-47.1-28.3h0Z"/>
</svg>