<?xml version="1.0" encoding="UTF-8"?>
<svg xmlns="http://www.w3.org/2000/svg" version="1.1" viewBox="0 0 36 36">
  <defs>
    <style>
      .cls-1 {
        fill: #01a95b;
      }
    </style>
  </defs>
  <g>
    <g id="Layer_1">
      <path class="cls-1" d="M31.2,21.4c0,.5-.4.8-.8.8h-3.7v2.8h2.5c.5,0,.8.4.8.8s-.4.8-.8.8h-2.5v2.5c0,.5-.4.8-.8.8s-.8-.4-.8-.8v-7.9c0-.5.4-.8.8-.8h4.5c.5,0,.8.4.8.8ZM12.7,24.2c0,2-1.6,3.7-3.7,3.7h-1.4v1.4c0,.5-.4.8-.8.8s-.8-.4-.8-.8v-7.9c0-.5.4-.8.8-.8h2.2c2,0,3.7,1.6,3.7,3.7ZM11,24.2c0-1.1-.9-2-2-2h-1.4v3.9h1.4c1.1,0,2-.9,2-2h0ZM22.8,25.3c0,2.6-2.1,4.8-4.8,4.8h-2.2c-.5,0-.8-.4-.8-.8v-7.9c0-.5.4-.8.8-.8h2.2c2.6,0,4.8,2.1,4.8,4.8h0ZM21.1,25.3c0-1.7-1.4-3.1-3.1-3.1h-1.4v6.2h1.4c1.7,0,3.1-1.4,3.1-3.1ZM5.9,15.8V5.6c0-1.1.9-2,2-2h13.5c.2,0,.4,0,.6.2l7.9,7.9c.2.2.2.4.2.6v3.4c0,.5-.4.8-.8.8s-.8-.4-.8-.8v-2.5h-7c-.5,0-.8-.4-.8-.8v-7H7.9c-.2,0-.3.1-.3.3v10.1c0,.5-.4.8-.8.8s-.8-.4-.8-.8ZM22.2,11.5h5l-5-5v5Z"/>
    </g>
  </g>
</svg>