<?xml version="1.0" encoding="UTF-8"?>
<svg xmlns="http://www.w3.org/2000/svg" version="1.1" viewBox="0 0 36 36">
  <defs>
    <style>
      .cls-1 {
        fill: #01a95b;
      }
    </style>
  </defs>
  <!-- Generator: Adobe Illustrator 28.7.4, SVG Export Plug-In . SVG Version: 1.2.0 Build 166)  -->
  <g>
    <g id="Layer_1">
      <path class="cls-1" d="M31.5,21.4c0,.6-.5,1.1-1.1,1.1h-3.4v2.2h2.2c.6,0,1.1.5,1.1,1.1s-.5,1.1-1.1,1.1h-2.2v2.2c0,.6-.5,1.1-1.1,1.1s-1.1-.5-1.1-1.1v-7.9c0-.6.5-1.1,1.1-1.1h4.5c.6,0,1.1.5,1.1,1.1ZM12.9,24.2c0,2.2-1.8,3.9-3.9,3.9h-1.1v1.1c0,.6-.5,1.1-1.1,1.1s-1.1-.5-1.1-1.1v-7.9c0-.6.5-1.1,1.1-1.1h2.2c2.2,0,3.9,1.8,3.9,3.9ZM10.7,24.2c0-.9-.8-1.7-1.7-1.7h-1.1v3.4h1.1c.9,0,1.7-.8,1.7-1.7ZM23.1,25.3c0,2.8-2.3,5.1-5.1,5.1h-2.2c-.6,0-1.1-.5-1.1-1.1v-7.9c0-.6.5-1.1,1.1-1.1h2.2c2.8,0,5.1,2.3,5.1,5.1ZM20.8,25.3c0-1.6-1.3-2.8-2.8-2.8h-1.1v5.6h1.1c1.6,0,2.8-1.3,2.8-2.8ZM5.6,15.8V5.6c0-1.2,1-2.2,2.2-2.2h13.5c.3,0,.6.1.8.3l7.9,7.9c.2.2.3.5.3.8v3.4c0,.6-.5,1.1-1.1,1.1s-1.1-.5-1.1-1.1v-2.2h-6.8c-.6,0-1.1-.5-1.1-1.1v-6.8H7.9v10.1c0,.6-.5,1.1-1.1,1.1s-1.1-.5-1.1-1.1ZM22.5,11.2h4l-4-4v4Z"/>
    </g>
  </g>
</svg>