<?xml version="1.0" encoding="UTF-8"?>
<svg id="a" xmlns="http://www.w3.org/2000/svg" version="1.1" viewBox="0 0 305.8 511">
  <!-- Generator: Adobe Illustrator 29.8.1, SVG Export Plug-In . SVG Version: 2.1.1 Build 2)  -->
  <defs>
    <style>
      .st0 {
        fill: #c29742;
      }
    </style>
  </defs>
  <path class="st0" d="M209.7,511H51.2c-4.9-3.4-6.5-8.1-6.2-14,.4-8.5,0-17,0-25.4v-11.3c-1.5-.1-2.4-.3-3.2-.3-12.5-.3-15.1-2.9-15.1-15.4,0-10.6.1-21.3-.1-31.9,0-1.5-1.4-3.9-2.5-4.2C7.4,404.2,0,395.2,0,378c0-26.6,0-53.2,0-79.8,0-9.3-.2-18.6.3-27.9.6-12,9.7-22.4,21.4-24.3,4.4-.7,5.2-2.4,5.2-6.3-.1-30.6,0-61.2,0-91.8,0-11.4,2.9-14.3,14-14.3h47.2v-31.8h-5.8c-17.9,0-35.9,0-53.8,0-14.6-.1-24.9-10.1-25.2-24.6-.2-8-.3-16,0-23.9.6-13.2,10.9-23,24-23.1,12.6-.1,25.2-.1,37.9,0,21.8.3,41.4,17.7,42.8,39.5,1.2,18.9.6,37.9.8,56.8,0,2.1,0,4.3,0,6.6h44.2v-5.9c0-27.8-.1-55.6,0-83.3C153.1,19.8,173,.2,197,0c12,0,23.9,0,35.9,0,14.9,0,25.3,10.3,25.5,25.3,0,6.3,0,12.6,0,19,0,17.1-10.2,27.3-27.2,27.3-17.6,0-35.2,0-52.8,0h-5.2v61.8h5.7c14.6,0,29.2,0,43.8,0,8.2,0,11.7,3.8,11.8,12,0,4.9,0,9.9,0,15.3,8.6,0,16.7-.3,24.8.1,5.2.3,10.6.9,15.6,2.6,19.4,6.4,30.8,23.5,30.8,45.8,0,58.2,0,116.4,0,174.6,0,2-.1,4-.2,6-1.3,20-15.6,37.5-35.2,41.1-9.7,1.8-19.8,1-29.8,1.3-1.9,0-3.8,0-6,0,0,5.8,0,10.8,0,15.8,0,7.7-4,11.6-11.6,11.9-2.1,0-4.1,0-6.4,0,0,12.8-.2,24.8,0,36.8.1,6.1-1.4,11-6.8,14.3h0ZM47.3,245.1c4.7,0,8.9,0,13,0,19.2.1,30.3,11.2,30.4,30.4,0,34.3,0,68.5,0,102.8,0,19.1-11.3,30.1-30.5,30.2-4.2,0-8.5,0-12.8,0v30.8h167.1v-5.6c0-74.3,0-148.7.1-223,0-4.6-1.2-5.8-5.8-5.8-52,.2-104,.1-156,.1h-5.5v40.2h0ZM234.9,181.4v230.9c8.1,0,15.9,0,23.7,0,16.4,0,27-10.7,27-27.2,0-23,0-45.9,0-68.9,0-36.6,0-73.2,0-109.8,0-12.8-8.6-23.4-21.3-24.9-9.6-1.1-19.4-.2-29.4-.2h0ZM47.3,184.4h166.8v-30.4H47.3v30.4ZM195.8,460.3H65.4v30.4h130.4v-30.4h0ZM20.8,313.5c-.3.7-.5,1-.5,1.3,0,21.9-.1,43.8,0,65.8,0,5.1,3,7.7,8.3,7.7,10.8,0,21.6,0,32.3,0,7,0,9.4-2.5,9.4-9.6,0-20.3,0-40.5,0-60.8,0-1.4-.2-2.9-.3-4.4H20.8ZM87.7,81.2c3-16.3-6.9-30.2-22.8-31.1-12.1-.7-24.2-.2-36.3-.2-3.6,0-5.5,1.8-5.4,5.6,0,6.2,0,12.3,0,18.4,0,6.6.9,7.5,7.4,7.5,17.6,0,35.2,0,52.8,0,1.5,0,2.9-.2,4.3-.2h0ZM173.2,51.3c20.3,0,40.3,0,60.4,0,3.4,0,4.5-2.3,4.5-5.3,0-6.5,0-13,0-19.4,0-4.6-1.9-6.6-6.6-6.6-10.5.1-20.9,0-31.4,0-18.3,0-29,12.1-27,31.3h0ZM20.2,293.1h50.1c0-7,.1-13.7,0-20.3-.1-4.6-2.9-7.3-7.6-7.4-11.6-.1-23.2-.1-34.8,0-4.7,0-7.5,2.8-7.6,7.4-.2,6.6,0,13.3,0,20.3Z"/>
</svg>