<?xml version="1.0" encoding="UTF-8"?>
<svg id="a" data-name="Layer_1" xmlns="http://www.w3.org/2000/svg" width="494.61" height="438.52" viewBox="0 0 494.61 438.52">
  <defs>
    <style>
      .b {
        fill: #262626;
      }
    </style>
  </defs>
  <path class="b" d="M217.8,438.52c-7.78-.44-15.56-.86-23.33-1.33-15.92-.96-31.88-1.55-47.75-3-30.47-2.8-60.81-6.84-90.37-14.94-12.75-3.5-25.19-8.34-37.41-13.43-5.2-2.17-9.96-6.07-14.05-10.07-6.37-6.23-6.67-13.97.09-19.7,6.6-5.59,14.22-10.47,22.16-13.91,22.39-9.7,46.26-14.26,70.21-18.26,6.49-1.08,13.01-2.06,20.23-3.19-7.6-11.36-15.01-21.97-21.83-32.94-1.96-3.15-3.2-7.43-3-11.09.3-5.41,4.22-9,9.5-10.29,5.52-1.35,10.3.47,13.59,5.12,4.79,6.79,9.33,13.75,13.96,20.65,4.72,7.04,9.57,14,14.07,21.18,1.91,3.04,3.92,4.18,7.63,3.8,9.08-.93,9.02-.73,11.58-9.61,5.46-18.91,14.16-36.17,26.85-51.27,2.67-3.17,2.89-5.3.5-8.85-41.93-62.34-83.71-124.77-125.46-187.23-1.71-2.56-3.28-5.48-3.91-8.45-1.21-5.74,1.87-11.05,7.06-13.51,5.12-2.43,11.19-1.29,15.06,2.96,1.22,1.34,2.24,2.89,3.25,4.41,47.18,70.42,94.36,140.85,141.49,211.3,1.46,2.18,2.93,4.53,3.62,7.02,1.53,5.51-.73,10.85-5.33,13.93-4.42,2.95-10.43,2.78-14.97-.49-.93-.67-1.77-1.48-2.98-2.5-11.96,15.52-19.56,32.64-22.88,52.07,16.35,3.04,26.99,11.73,28.19,28.53,1.17,16.34-7.83,26.36-23.96,32.13,1.91,1.49,3.09,3.23,4.3,3.25,12.93.2,25.86.12,39.12.12-1.85-7.77-.97-15.7,5.87-21.96,4.41-4.03,9.65-5.64,15.61-5.22,12.78.9,19.56,11.29,17.69,28.58,22.12-1.13,44.06-2.25,66.65-3.41-1.46-9.51-.44-18.08,7.05-23.62,4.03-2.98,9.47-5.18,14.44-5.53,12.78-.9,21.21,7.91,23.35,23.61,7.94-1.31,15.9-2.5,23.81-3.97,9.34-1.74,9.32-1.84,10.96-11.32,8.46-49.12-13.83-97.39-56.66-123.02-2.72-1.63-5.27-4.06-7.03-6.7-24.39-36.67-48.65-73.43-72.87-110.22-1.62-2.46-3.2-5.17-3.87-7.98-1.32-5.51,1.72-11.12,6.76-13.74,4.89-2.54,11.31-1.57,15.15,2.54,1.69,1.81,3.04,3.94,4.43,6.01,23.6,35.2,47.16,70.44,70.84,105.59,1.61,2.39,3.86,4.56,6.25,6.2,36.55,25.19,57.86,59.72,63.7,103.7.4,3,1.63,4.13,4.28,5.13,9.47,3.55,19.03,6.97,28.12,11.33,4.82,2.31,9.23,5.99,12.97,9.88,5.33,5.54,5.44,12.36.15,17.91-3.94,4.13-8.7,7.8-13.71,10.54-17.24,9.39-36.07,14.62-55.21,17.94-24.53,4.25-49.24,7.69-74,10.4-19.65,2.15-39.47,2.65-59.21,3.91-4.29.27-8.57.69-12.86,1.04h-57.91Z"/>
  <path class="b" d="M250.26,260.63c-4.8-7.18-9.49-14.19-14.86-22.22,11.13-4.18,21.77-8.18,32.85-12.34-.77-1.27-1.63-2.81-2.61-4.27-24.32-36.33-48.66-72.64-72.93-109-1.54-2.3-3.02-4.89-3.59-7.55-1.26-5.91,1.86-11.42,7.23-13.93,5.31-2.47,11.47-1.17,15.34,3.52,2.11,2.56,3.88,5.39,5.75,8.14,32.06,47.35,64.11,94.71,96.16,142.07.91,1.34,1.72,2.75,2.94,4.72-23.48-2.86-45.24,1.08-66.29,10.85Z"/>
  <path class="b" d="M60.58,215.87c2.03,1.41,6.34,3.08,8.63,6.23,7.92,10.86,15.26,22.15,22.58,33.44,4.27,6.58,2.5,14.42-3.67,18.36-6.05,3.87-13.53,2.33-17.91-4.07-7.51-10.96-14.84-22.04-22.19-33.11-3.01-4.52-3.46-9.3-.69-14.09,2.43-4.21,6.27-6.22,13.25-6.76Z"/>
  <path class="b" d="M332.59,356.73c.04,11.54-8.93,20.69-20.37,20.78-11.66.09-21.1-9.28-20.95-20.8.14-11.37,9.49-20.68,20.72-20.65,11.35.03,20.56,9.28,20.59,20.67Z"/>
  <path class="b" d="M239.2,304.87c11.49.03,20.51,9.17,20.38,20.65-.13,11.21-9.19,20.12-20.45,20.09-11.52-.02-20.44-9.1-20.32-20.66.12-11.31,9.06-20.11,20.39-20.08Z"/>
  <path class="b" d="M42.46,36.52c-10.06-.14-22.65-18.93-18.99-28.34,3.46-8.89,15.47-11.14,21.68-3.75,3.5,4.17,6.62,8.8,9.1,13.65,4.46,8.71-2.06,18.58-11.79,18.44Z"/>
  <path class="b" d="M176.3,78.15c-8.43,1.62-20.43-16.81-16.71-24.57,4.15-8.67,15.33-11.15,21.74-3.88,2.6,2.96,4.87,6.35,6.62,9.88,4.33,8.72-2.04,18.64-11.65,18.57Z"/>
  <path class="b" d="M286.88,289.71c-8.31-.1-15.14-7.12-14.99-15.42.15-8.24,7.36-15.24,15.5-15.05,8.26.2,15.15,7.33,15.02,15.55-.13,8.26-7.16,15.01-15.53,14.91Z"/>
  <path class="b" d="M398.4,344.75c.04,6.05-4.54,10.77-10.56,10.87-6.19.1-11.2-4.83-11.1-10.92.1-5.85,5.08-10.75,10.89-10.73,5.9.02,10.72,4.85,10.76,10.78Z"/>
  <path class="b" d="M349.51,291.88c6.09-.07,10.83,4.46,10.96,10.46.13,6.18-4.78,11.24-10.86,11.18-5.82-.05-10.77-5.02-10.8-10.84-.03-5.92,4.74-10.73,10.7-10.8Z"/>
</svg>