<?xml version="1.0" encoding="UTF-8"?>
<svg id="Layer_1" xmlns="http://www.w3.org/2000/svg" version="1.1" viewBox="0 0 512 512">
  <!-- Generator: Adobe Illustrator 29.8.1, SVG Export Plug-In . SVG Version: 2.1.1 Build 2)  -->
  <defs>
    <style>
      .st0 {
        fill: #c29742;
      }
    </style>
  </defs>
  <path class="st0" d="M277.3,21.3c0-11.8,9.6-21.3,21.3-21.3,117.8.1,213.2,95.6,213.3,213.3,0,11.8-9.6,21.3-21.3,21.3s-21.3-9.6-21.3-21.3c-.1-94.2-76.5-170.6-170.7-170.7-11.8,0-21.3-9.6-21.3-21.3ZM298.7,128c47.1,0,83.8,38.2,85.3,85.3.5,15.2,9.6,21.3,21.3,21.3s21.3-9.6,21.3-21.3c0-70.7-57.3-127.9-128-128-11.8,0-21.3,9.6-21.3,21.3s9.6,21.3,21.3,21.3h.1ZM492.7,357.1c25.7,25.8,25.7,67.6,0,93.4l-19.4,22.4C298.5,640.1-126.7,215.1,38,39.8l24.5-21.3c25.8-25,67-24.6,92.3.9.7.7,40.2,52,40.2,52,24.4,25.6,24.3,65.8-.1,91.3l-24.7,31.1c27.6,67.1,80.8,120.4,147.9,148.2l31.3-24.9c25.5-24.4,65.7-24.5,91.3-.1,0,0,51.3,39.5,52,40.2h0ZM463.3,388.1s-51.1-39.3-51.7-39.9c-9.1-9.1-23.9-9.1-33,0s-43.6,34.9-43.6,34.9c-5.9,4.7-13.8,5.9-20.9,3.2-87-32.4-155.7-101-188.2-187.9-2.9-7.1-1.7-15.3,3.1-21.3,0,0,34.3-43.1,34.9-43.6,9.1-9.1,9.1-23.9,0-33-.7-.6-39.9-51.7-39.9-51.7-9.3-8.3-23.4-7.9-32.2.8l-24.5,21.3c-120.4,144.7,248.1,492.7,374.9,372.9l19.4-22.4c9.5-8.8,10.3-23.5,1.8-33.2h0Z"/>
</svg>