<?xml version="1.0" encoding="UTF-8"?>
<svg id="Layer_1" xmlns="http://www.w3.org/2000/svg" version="1.1" viewBox="0 0 32 32">
  <!-- Generator: Adobe Illustrator 29.8.1, SVG Export Plug-In . SVG Version: 2.1.1 Build 2)  -->
  <defs>
    <style>
      .st0 {
        fill: #c29742;
      }
    </style>
  </defs>
  <path class="st0" d="M27.8,19.8l-5.9-2.6h0c-.6-.3-1.3-.2-1.9.2h0l-3,2.6c-1.9-.9-3.9-2.9-4.9-4.8l2.6-3.1h0c.4-.6.4-1.3.2-1.9h0l-2.6-5.9c-.4-.8-1.2-1.3-2.1-1.2-3.5.5-6.1,3.5-6.1,7,0,9.9,8.1,18,18,18s6.5-2.6,7-6.1c.1-.9-.4-1.7-1.2-2.1h-.1ZM22,26c-8.8,0-16-7.2-16-16s1.9-4.7,4.4-5h0l2.6,5.9-2.6,3.1h0c-.4.6-.4,1.3-.1,2,1.1,2.3,3.5,4.6,5.8,5.8.6.3,1.4.2,2-.1h0l3-2.6,5.9,2.6h0c-.3,2.5-2.5,4.4-5,4.4h0Z"/>
</svg>