<?xml version="1.0" encoding="UTF-8"?>
<svg xmlns="http://www.w3.org/2000/svg" version="1.1" viewBox="0 0 512 512">
  <defs>
    <style>
      .cls-1 {
        fill: #7a7a7a;
      }
    </style>
  </defs>
  <!-- Generator: Adobe Illustrator 28.7.4, SVG Export Plug-In . SVG Version: 1.2.0 Build 166)  -->
  <g>
    <g id="Layer_1">
      <g id="_01_align_center">
        <path class="cls-1" d="M256,512C114.6,512,0,397.4,0,256S114.6,0,256,0s256,114.6,256,256c-.2,141.3-114.7,255.8-256,256ZM256,42.7c-117.8,0-213.3,95.5-213.3,213.3s95.5,213.3,213.3,213.3,213.3-95.5,213.3-213.3c-.1-117.8-95.6-213.2-213.3-213.3Z"/>
        <path class="cls-1" d="M277.3,320h-42.7v-15.9c-.6-30.7,15.4-59.2,41.9-74.7,16.2-8.9,24.8-27.2,21.3-45.3-3.4-17.2-16.9-30.7-34.1-34-23.2-4.3-45.4,11-49.7,34.2-.5,2.5-.7,5.1-.7,7.7h-42.7c0-47.1,38.2-85.3,85.4-85.3,47.1,0,85.3,38.2,85.3,85.4,0,31.1-16.9,59.7-44.2,74.7-12.8,8-20.4,22.3-19.8,37.4v15.9Z"/>
        <rect class="cls-1" x="234.7" y="362.7" width="42.7" height="42.7"/>
      </g>
    </g>
  </g>
</svg>