<?xml version="1.0" encoding="UTF-8"?>
<svg id="Layer_1" xmlns="http://www.w3.org/2000/svg" version="1.1" viewBox="0 0 512 512">
  <!-- Generator: Adobe Illustrator 29.8.1, SVG Export Plug-In . SVG Version: 2.1.1 Build 2)  -->
  <defs>
    <style>
      .st0 {
        fill: #c29742;
      }
    </style>
  </defs>
  <path class="st0" d="M106.8,512.1c-11.7,0-23.4-4.2-32.5-12.7l-42.5-39.4c-42.2-42.1-42.2-109.8-.6-151.4,20.2-20.1,47-31.2,75.4-31.2s55.3,11.1,75.4,31.2h0c20.2,20.1,31.3,46.9,31.3,75.4s-11.1,55.3-31.3,75.4l-42.7,39.9c-9.1,8.5-20.9,12.8-32.6,12.8h0ZM106.7,320c-17.1,0-33.2,6.7-45.3,18.8-24.9,24.9-24.9,65.5,0,90.5l41.9,38.9c2,1.8,5,1.8,7,0l42.2-39.4c11.6-11.6,18.2-27.6,18.2-44.8s-6.7-33.2-18.8-45.3h0c-12.1-12.1-28.2-18.7-45.2-18.7h0ZM405.4,234.8c-11.7,0-23.4-4.2-32.5-12.7l-42.5-39.4c-42.2-42.1-42.2-109.8-.6-151.4C350.1,11.1,376.9,0,405.4,0s55.3,11.1,75.4,31.2h0c41.6,41.6,41.6,109.3,0,150.8l-42.7,39.9c-9.1,8.5-20.9,12.8-32.6,12.8h0ZM405.3,42.7c-17.1,0-33.2,6.7-45.3,18.7-24.9,25-24.9,65.6,0,90.5l41.9,38.9c2,1.8,5,1.8,7,0l42.2-39.4c24.4-24.4,24.4-65-.5-90h0c-12.1-12.1-28.2-18.8-45.2-18.8h0ZM512,426.7c0-47.1-38.3-85.3-85.3-85.3h-106.7c-23.5,0-42.7-19.1-42.7-42.7s11.4-34.2,28.4-40.2c11.1-3.9,16.9-16.1,13-27.2s-16.1-17-27.2-13c-34,12-56.9,44.4-56.9,80.5s38.3,85.3,85.3,85.3h106.7c23.5,0,42.7,19.1,42.7,42.7s-19.1,42.7-42.7,42.7h-192c-11.8,0-21.3,9.6-21.3,21.3s9.6,21.3,21.3,21.3h192c47.1,0,85.3-38.3,85.3-85.3h0Z"/>
</svg>